<svg width="36" height="36" viewBox="0 0 36 36" fill="none" xmlns="http://www.w3.org/2000/svg">
<g id="mdi:discount">
<path id="Vector" d="M29.5494 13.3102V6.53861H22.7922L17.9902 1.77979L13.2602 6.53861H6.48856V13.3102L1.72974 18.0403L6.48856 22.8422V29.5995H13.2602L17.9902 34.3583L22.7922 29.5995H29.5494V22.8422L34.3083 18.0403L29.5494 13.3102ZM13.4327 10.9236C14.8417 10.9236 15.9775 12.0594 15.9775 13.4827C15.9775 14.1577 15.7093 14.8049 15.2321 15.2822C14.7549 15.7594 14.1076 16.0275 13.4327 16.0275C12.0094 16.0275 10.8736 14.8917 10.8736 13.4827C10.8736 12.0594 12.0094 10.9236 13.4327 10.9236ZM22.6197 25.2288C21.2107 25.2288 20.0749 24.0787 20.0749 22.6697C20.0749 21.9948 20.343 21.3475 20.8203 20.8703C21.2975 20.3931 21.9448 20.125 22.6197 20.125C24.0286 20.125 25.1788 21.2608 25.1788 22.6697C25.1788 23.3484 24.9092 23.9994 24.4292 24.4793C23.9493 24.9592 23.2984 25.2288 22.6197 25.2288ZM12.9583 25.272L10.8017 23.1154L23.0654 10.8517L25.2219 13.0083L12.9583 25.272Z" fill="url(#paint0_linear_3658_1614)"/>
</g>
<defs>
<linearGradient id="paint0_linear_3658_1614" x1="13.3646" y1="-2.39421" x2="27.1462" y2="43.7437" gradientUnits="userSpaceOnUse">
<stop stop-color="#FFE9BD"/>
<stop offset="1" stop-color="#FFC552"/>
</linearGradient>
</defs>
</svg>
